%TF.GenerationSoftware,KiCad,Pcbnew,10.0.0*%
%TF.CreationDate,2026-04-04T17:59:46+02:00*%
%TF.ProjectId,LED-Flashlight,4c45442d-466c-4617-9368-6c696768742e,rev?*%
%TF.SameCoordinates,Original*%
%TF.FileFunction,Copper,L2,Bot*%
%TF.FilePolarity,Positive*%
%FSLAX46Y46*%
G04 Gerber Fmt 4.6, Leading zero omitted, Abs format (unit mm)*
G04 Created by KiCad (PCBNEW 10.0.0) date 2026-04-04 17:59:46*
%MOMM*%
%LPD*%
G01*
G04 APERTURE LIST*
%TA.AperFunction,ComponentPad*%
%ADD10C,2.300000*%
%TD*%
%TA.AperFunction,ComponentPad*%
%ADD11R,1.800000X1.800000*%
%TD*%
%TA.AperFunction,ComponentPad*%
%ADD12C,1.800000*%
%TD*%
%TA.AperFunction,ViaPad*%
%ADD13C,1.700000*%
%TD*%
G04 APERTURE END LIST*
D10*
%TO.P,BT1,P1*%
%TO.N,+VBAT*%
X147000000Y-104925000D03*
%TO.P,BT1,P2*%
X143800000Y-104925000D03*
%TO.P,BT1,P3*%
X143800000Y-118125000D03*
%TO.P,BT1,P4*%
X147000000Y-118125000D03*
%TD*%
D11*
%TO.P,D1,1,K_1*%
%TO.N,/V_FB*%
X162000000Y-112765000D03*
D12*
%TO.P,D1,2,A_2*%
%TO.N,/V_OUT*%
X162000000Y-110230000D03*
%TD*%
D13*
%TO.N,*%
X158500000Y-128600000D03*
X155500000Y-128600000D03*
X161500000Y-128600000D03*
X161500000Y-125300000D03*
X158500000Y-125300000D03*
X155500000Y-125300000D03*
%TO.N,GND*%
X149600000Y-111500000D03*
X149300000Y-113200000D03*
X159900000Y-117400000D03*
X149300000Y-109800000D03*
X154200000Y-117400000D03*
X160900000Y-114800000D03*
%TD*%
%TA.AperFunction,Conductor*%
%TO.N,GND*%
G36*
X162497779Y-103250579D02*
G01*
X162501764Y-103250721D01*
X162502208Y-103250737D01*
X162506619Y-103250973D01*
X162735741Y-103267359D01*
X162744523Y-103268304D01*
X162749759Y-103269057D01*
X162753272Y-103269563D01*
X162761966Y-103271132D01*
X162979897Y-103318540D01*
X162988461Y-103320725D01*
X162996944Y-103323215D01*
X163005330Y-103326005D01*
X163214329Y-103403958D01*
X163222481Y-103407335D01*
X163230524Y-103411007D01*
X163238424Y-103414961D01*
X163418639Y-103513368D01*
X163434185Y-103521856D01*
X163441790Y-103526369D01*
X163449238Y-103531156D01*
X163456504Y-103536202D01*
X163629989Y-103666071D01*
X163634224Y-103669241D01*
X163635036Y-103669849D01*
X163641919Y-103675396D01*
X163648604Y-103681188D01*
X163655087Y-103687224D01*
X163812774Y-103844911D01*
X163818806Y-103851390D01*
X163824602Y-103858079D01*
X163830156Y-103864971D01*
X163963796Y-104043494D01*
X163968842Y-104050760D01*
X163973629Y-104058208D01*
X163978148Y-104065825D01*
X164085028Y-104261559D01*
X164088985Y-104269463D01*
X164092664Y-104277518D01*
X164096048Y-104285688D01*
X164173984Y-104494647D01*
X164176780Y-104503049D01*
X164179272Y-104511537D01*
X164181460Y-104520109D01*
X164228864Y-104738017D01*
X164230436Y-104746728D01*
X164231695Y-104755484D01*
X164232641Y-104764286D01*
X164249025Y-104993370D01*
X164249261Y-104997764D01*
X164249420Y-105002190D01*
X164249500Y-105006642D01*
X164249500Y-117993356D01*
X164249420Y-117997808D01*
X164249261Y-118002234D01*
X164249025Y-118006628D01*
X164232641Y-118235712D01*
X164231695Y-118244514D01*
X164230436Y-118253270D01*
X164228864Y-118261981D01*
X164181460Y-118479889D01*
X164179272Y-118488461D01*
X164176780Y-118496949D01*
X164173984Y-118505351D01*
X164096048Y-118714310D01*
X164092658Y-118722495D01*
X164088988Y-118730530D01*
X164085028Y-118738439D01*
X163978148Y-118934173D01*
X163973629Y-118941790D01*
X163968842Y-118949238D01*
X163963796Y-118956504D01*
X163830156Y-119135027D01*
X163824602Y-119141919D01*
X163818806Y-119148608D01*
X163812774Y-119155087D01*
X163655087Y-119312774D01*
X163648608Y-119318806D01*
X163641919Y-119324602D01*
X163635027Y-119330156D01*
X163456504Y-119463796D01*
X163449238Y-119468842D01*
X163441790Y-119473629D01*
X163434173Y-119478148D01*
X163238439Y-119585028D01*
X163230530Y-119588988D01*
X163222495Y-119592658D01*
X163214310Y-119596048D01*
X163005351Y-119673984D01*
X162996949Y-119676780D01*
X162988461Y-119679272D01*
X162979889Y-119681460D01*
X162761981Y-119728864D01*
X162753270Y-119730436D01*
X162744514Y-119731695D01*
X162735712Y-119732641D01*
X162506628Y-119749025D01*
X162502235Y-119749261D01*
X162497810Y-119749420D01*
X162493357Y-119749500D01*
X149087047Y-119749500D01*
X149020008Y-119729815D01*
X148974253Y-119677011D01*
X148963049Y-119624852D01*
X148992882Y-113915641D01*
X148992879Y-113909710D01*
X148992868Y-113908186D01*
X148992861Y-113906918D01*
X148992791Y-113901081D01*
X148992791Y-113901078D01*
X148992791Y-113901077D01*
X148969779Y-113759066D01*
X148969777Y-113759053D01*
X148948900Y-113692376D01*
X148948899Y-113692373D01*
X148886803Y-113562583D01*
X148823813Y-113468310D01*
X148812355Y-113446874D01*
X148780617Y-113370254D01*
X148773560Y-113346990D01*
X148757382Y-113265654D01*
X148755000Y-113241464D01*
X148755000Y-113158533D01*
X148757382Y-113134343D01*
X148773562Y-113052998D01*
X148780614Y-113029749D01*
X148812355Y-112953120D01*
X148823803Y-112931701D01*
X148894307Y-112826187D01*
X148896036Y-112823583D01*
X148896090Y-112823502D01*
X148896784Y-112822448D01*
X148896897Y-112822277D01*
X148898681Y-112819550D01*
X148959133Y-112688986D01*
X148979167Y-112622050D01*
X149000386Y-112479747D01*
X149010511Y-110541984D01*
X149010508Y-110536163D01*
X149010490Y-110533302D01*
X149010420Y-110527465D01*
X149010420Y-110527462D01*
X149010420Y-110527461D01*
X148987408Y-110385450D01*
X148987406Y-110385437D01*
X148966529Y-110318760D01*
X148966528Y-110318757D01*
X148904432Y-110188967D01*
X148858198Y-110119772D01*
X160599500Y-110119772D01*
X160599500Y-110340226D01*
X160633985Y-110557955D01*
X160702094Y-110767579D01*
X160702102Y-110767602D01*
X160702104Y-110767606D01*
X160802187Y-110964026D01*
X160919235Y-111125129D01*
X160931752Y-111142358D01*
X160931756Y-111142363D01*
X160931761Y-111142369D01*
X160931762Y-111142370D01*
X160965678Y-111176285D01*
X160986831Y-111204542D01*
X160993482Y-111216723D01*
X161008333Y-111284997D01*
X160983915Y-111350460D01*
X160983904Y-111350474D01*
X160981155Y-111354145D01*
X160925235Y-111396000D01*
X160857678Y-111421198D01*
X160857658Y-111421209D01*
X160742465Y-111507443D01*
X160742453Y-111507453D01*
X160742450Y-111507456D01*
X160656205Y-111622665D01*
X160656203Y-111622668D01*
X160605908Y-111757516D01*
X160599500Y-111817125D01*
X160599500Y-113712876D01*
X160599659Y-113714806D01*
X160599885Y-113716454D01*
X160605907Y-113772482D01*
X160633690Y-113846971D01*
X160656202Y-113907328D01*
X160656206Y-113907335D01*
X160662424Y-113915641D01*
X160742450Y-114022542D01*
X160742452Y-114022544D01*
X160742455Y-114022547D01*
X160857664Y-114108793D01*
X160857671Y-114108797D01*
X160992517Y-114159091D01*
X160992516Y-114159091D01*
X160999444Y-114159835D01*
X161052127Y-114165500D01*
X162947872Y-114165499D01*
X163007483Y-114159091D01*
X163142331Y-114108796D01*
X163257546Y-114022546D01*
X163343796Y-113907331D01*
X163394091Y-113772483D01*
X163400500Y-113712873D01*
X163400499Y-111817128D01*
X163394091Y-111757517D01*
X163343796Y-111622669D01*
X163343795Y-111622668D01*
X163343793Y-111622664D01*
X163343782Y-111622649D01*
X163341392Y-111618929D01*
X163341391Y-111618928D01*
X163338489Y-111615579D01*
X163257547Y-111507455D01*
X163257544Y-111507452D01*
X163257542Y-111507450D01*
X163199939Y-111464329D01*
X163142335Y-111421206D01*
X163142330Y-111421203D01*
X163142328Y-111421202D01*
X163142326Y-111421201D01*
X163082763Y-111398985D01*
X163051787Y-111382070D01*
X163040677Y-111373753D01*
X162998806Y-111317819D01*
X162993822Y-111248129D01*
X162994797Y-111243647D01*
X163028282Y-111182324D01*
X163034321Y-111176285D01*
X163068242Y-111142365D01*
X163197815Y-110964022D01*
X163297895Y-110767606D01*
X163366015Y-110557951D01*
X163400500Y-110340222D01*
X163400500Y-110119778D01*
X163366015Y-109902049D01*
X163297895Y-109692394D01*
X163297895Y-109692393D01*
X163263237Y-109624375D01*
X163197815Y-109495978D01*
X163197812Y-109495974D01*
X163181261Y-109473194D01*
X163181259Y-109473190D01*
X163068261Y-109317660D01*
X163068243Y-109317636D01*
X163068235Y-109317627D01*
X162912369Y-109161761D01*
X162912364Y-109161757D01*
X162912363Y-109161756D01*
X162912358Y-109161752D01*
X162898940Y-109152003D01*
X162744630Y-109039891D01*
X162744618Y-109039883D01*
X162734025Y-109032187D01*
X162734024Y-109032186D01*
X162734022Y-109032185D01*
X162727909Y-109029070D01*
X162727898Y-109029063D01*
X162671098Y-109000123D01*
X162671096Y-109000122D01*
X162537606Y-108932104D01*
X162537602Y-108932102D01*
X162537579Y-108932094D01*
X162327954Y-108863985D01*
X162327955Y-108863985D01*
X162219086Y-108846742D01*
X162110227Y-108829500D01*
X162110222Y-108829500D01*
X161889778Y-108829500D01*
X161889774Y-108829500D01*
X161831716Y-108838696D01*
X161817201Y-108840995D01*
X161672043Y-108863985D01*
X161462419Y-108932094D01*
X161462396Y-108932102D01*
X161462392Y-108932104D01*
X161265972Y-109032187D01*
X161087658Y-109161739D01*
X161087629Y-109161761D01*
X160931761Y-109317629D01*
X160931739Y-109317658D01*
X160802187Y-109495972D01*
X160702104Y-109692392D01*
X160702102Y-109692396D01*
X160702094Y-109692419D01*
X160633985Y-109902043D01*
X160599500Y-110119772D01*
X148858198Y-110119772D01*
X148823813Y-110068310D01*
X148812355Y-110046874D01*
X148780617Y-109970254D01*
X148773560Y-109946990D01*
X148757382Y-109865654D01*
X148755000Y-109841464D01*
X148755000Y-109758529D01*
X148757383Y-109734338D01*
X148765726Y-109692394D01*
X148773562Y-109652999D01*
X148780617Y-109629743D01*
X148782841Y-109624375D01*
X148812351Y-109553129D01*
X148823808Y-109531694D01*
X148896146Y-109423430D01*
X148899196Y-109419075D01*
X148900685Y-109417041D01*
X148916578Y-109394013D01*
X148916581Y-109394009D01*
X148977033Y-109263445D01*
X148997067Y-109196509D01*
X149018286Y-109054207D01*
X149039485Y-104997764D01*
X149047969Y-103374429D01*
X149049552Y-103374437D01*
X149064497Y-103312595D01*
X149115021Y-103264335D01*
X149171939Y-103250500D01*
X162493357Y-103250500D01*
X162497779Y-103250579D01*
G37*
%TD.AperFunction*%
%TD*%
%TA.AperFunction,Conductor*%
%TO.N,+VBAT*%
G36*
X148485499Y-103270185D02*
G01*
X148531254Y-103322989D01*
X148542458Y-103375148D01*
X148512793Y-109051565D01*
X148492759Y-109118501D01*
X148484662Y-109129565D01*
X148484028Y-109130336D01*
X148369058Y-109302402D01*
X148289870Y-109493579D01*
X148289868Y-109493587D01*
X148249500Y-109696530D01*
X148249500Y-109903469D01*
X148289868Y-110106412D01*
X148289870Y-110106420D01*
X148369058Y-110297596D01*
X148484123Y-110469805D01*
X148505000Y-110536482D01*
X148505018Y-110539343D01*
X148494893Y-112477106D01*
X148474859Y-112544042D01*
X148473998Y-112545348D01*
X148369058Y-112702403D01*
X148289870Y-112893579D01*
X148289868Y-112893587D01*
X148249500Y-113096530D01*
X148249500Y-113303469D01*
X148289868Y-113506412D01*
X148289870Y-113506420D01*
X148369058Y-113697596D01*
X148466494Y-113843421D01*
X148487371Y-113910098D01*
X148487389Y-113912959D01*
X148464778Y-118240135D01*
X148457680Y-119598443D01*
X148457535Y-119626148D01*
X148437501Y-119693084D01*
X148384458Y-119738562D01*
X148333537Y-119749500D01*
X142004428Y-119749500D01*
X141995582Y-119749184D01*
X141759864Y-119732325D01*
X141742352Y-119729807D01*
X141515776Y-119680518D01*
X141498801Y-119675534D01*
X141281540Y-119594501D01*
X141265446Y-119587151D01*
X141061931Y-119476022D01*
X141047048Y-119466457D01*
X140861420Y-119327498D01*
X140848049Y-119315912D01*
X140684087Y-119151950D01*
X140672501Y-119138579D01*
X140533542Y-118952951D01*
X140523977Y-118938068D01*
X140412848Y-118734553D01*
X140405501Y-118718465D01*
X140324463Y-118501194D01*
X140319481Y-118484223D01*
X140270192Y-118257647D01*
X140267674Y-118240135D01*
X140250816Y-118004418D01*
X140250500Y-117995572D01*
X140250500Y-105004427D01*
X140250816Y-104995581D01*
X140267674Y-104759864D01*
X140270190Y-104742360D01*
X140319483Y-104515768D01*
X140324462Y-104498809D01*
X140405503Y-104281528D01*
X140412843Y-104265456D01*
X140523981Y-104061924D01*
X140533537Y-104047054D01*
X140672506Y-103861413D01*
X140684080Y-103848056D01*
X140848056Y-103684080D01*
X140861413Y-103672506D01*
X141047054Y-103533537D01*
X141061924Y-103523981D01*
X141265456Y-103412843D01*
X141281528Y-103405503D01*
X141498809Y-103324462D01*
X141515768Y-103319483D01*
X141742360Y-103270190D01*
X141759857Y-103267674D01*
X141995582Y-103250816D01*
X142004428Y-103250500D01*
X148418460Y-103250500D01*
X148485499Y-103270185D01*
G37*
%TD.AperFunction*%
%TD*%
M02*
