%TF.GenerationSoftware,KiCad,Pcbnew,9.0.0*%
%TF.CreationDate,2026-02-04T19:41:43+01:00*%
%TF.ProjectId,Keychain-flashlight,4b657963-6861-4696-9e2d-666c6173686c,rev?*%
%TF.SameCoordinates,Original*%
%TF.FileFunction,Copper,L2,Bot*%
%TF.FilePolarity,Positive*%
%FSLAX46Y46*%
G04 Gerber Fmt 4.6, Leading zero omitted, Abs format (unit mm)*
G04 Created by KiCad (PCBNEW 9.0.0) date 2026-02-04 19:41:43*
%MOMM*%
%LPD*%
G01*
G04 APERTURE LIST*
%TA.AperFunction,ComponentPad*%
%ADD10C,2.300000*%
%TD*%
%TA.AperFunction,ComponentPad*%
%ADD11R,1.800000X1.800000*%
%TD*%
%TA.AperFunction,ComponentPad*%
%ADD12C,1.800000*%
%TD*%
%TA.AperFunction,ViaPad*%
%ADD13C,0.900000*%
%TD*%
G04 APERTURE END LIST*
D10*
%TO.P,BT1,P1*%
%TO.N,+VBAT*%
X107100000Y-84900000D03*
%TO.P,BT1,P2*%
X103900000Y-84900000D03*
%TO.P,BT1,P3*%
X103900000Y-98100000D03*
%TO.P,BT1,P4*%
X107100000Y-98100000D03*
%TD*%
D11*
%TO.P,D1,1,K*%
%TO.N,/V_FB*%
X122000000Y-92765000D03*
D12*
%TO.P,D1,2,A*%
%TO.N,/V_OUT*%
X122000000Y-90230000D03*
%TD*%
D13*
%TO.N,GND*%
X110000000Y-90500000D03*
X119250000Y-97400000D03*
X109600000Y-93500000D03*
X109600000Y-89500000D03*
X118294474Y-97400000D03*
X110000000Y-92500000D03*
X117334626Y-97395660D03*
X121000000Y-94500000D03*
X110000000Y-91500000D03*
%TD*%
%TA.AperFunction,Conductor*%
%TO.N,+VBAT*%
G36*
X108693039Y-83270185D02*
G01*
X108738794Y-83322989D01*
X108750000Y-83374500D01*
X108750000Y-99625500D01*
X108730315Y-99692539D01*
X108677511Y-99738294D01*
X108626000Y-99749500D01*
X102004428Y-99749500D01*
X101995582Y-99749184D01*
X101759864Y-99732325D01*
X101742352Y-99729807D01*
X101515779Y-99680519D01*
X101498803Y-99675535D01*
X101281537Y-99594498D01*
X101265444Y-99587148D01*
X101061931Y-99476022D01*
X101047048Y-99466457D01*
X100861420Y-99327498D01*
X100848049Y-99315912D01*
X100684087Y-99151950D01*
X100672501Y-99138579D01*
X100533542Y-98952951D01*
X100523977Y-98938068D01*
X100412851Y-98734555D01*
X100405501Y-98718462D01*
X100375740Y-98638672D01*
X100324461Y-98501188D01*
X100319482Y-98484229D01*
X100270191Y-98257641D01*
X100267674Y-98240135D01*
X100250816Y-98004418D01*
X100250500Y-97995572D01*
X100250500Y-85004427D01*
X100250816Y-84995581D01*
X100267674Y-84759864D01*
X100270190Y-84742360D01*
X100319483Y-84515766D01*
X100324460Y-84498815D01*
X100405501Y-84281536D01*
X100412851Y-84265444D01*
X100517017Y-84074678D01*
X100523981Y-84061923D01*
X100533537Y-84047054D01*
X100672506Y-83861413D01*
X100684080Y-83848056D01*
X100848056Y-83684080D01*
X100861413Y-83672506D01*
X101047054Y-83533537D01*
X101061923Y-83523981D01*
X101265444Y-83412850D01*
X101281537Y-83405501D01*
X101498815Y-83324460D01*
X101515766Y-83319483D01*
X101742360Y-83270190D01*
X101759857Y-83267674D01*
X101995582Y-83250816D01*
X102004428Y-83250500D01*
X108626000Y-83250500D01*
X108693039Y-83270185D01*
G37*
%TD.AperFunction*%
%TD*%
%TA.AperFunction,Conductor*%
%TO.N,GND*%
G36*
X122504418Y-83250816D02*
G01*
X122740140Y-83267674D01*
X122757641Y-83270191D01*
X122984229Y-83319482D01*
X123001188Y-83324461D01*
X123135346Y-83374500D01*
X123218462Y-83405501D01*
X123234555Y-83412851D01*
X123438068Y-83523977D01*
X123452951Y-83533542D01*
X123638579Y-83672501D01*
X123651950Y-83684087D01*
X123815912Y-83848049D01*
X123827498Y-83861420D01*
X123966457Y-84047048D01*
X123976022Y-84061931D01*
X124087148Y-84265444D01*
X124094498Y-84281537D01*
X124175535Y-84498803D01*
X124180519Y-84515779D01*
X124229807Y-84742352D01*
X124232325Y-84759864D01*
X124249184Y-84995581D01*
X124249500Y-85004427D01*
X124249500Y-97995572D01*
X124249184Y-98004418D01*
X124232325Y-98240135D01*
X124229807Y-98257647D01*
X124180519Y-98484220D01*
X124175535Y-98501196D01*
X124094498Y-98718462D01*
X124087148Y-98734555D01*
X123976022Y-98938068D01*
X123966457Y-98952951D01*
X123827498Y-99138579D01*
X123815912Y-99151950D01*
X123651950Y-99315912D01*
X123638579Y-99327498D01*
X123452951Y-99466457D01*
X123438068Y-99476022D01*
X123234555Y-99587148D01*
X123218462Y-99594498D01*
X123001196Y-99675535D01*
X122984220Y-99680519D01*
X122757647Y-99729807D01*
X122740135Y-99732325D01*
X122504418Y-99749184D01*
X122495572Y-99749500D01*
X109029500Y-99749500D01*
X108962461Y-99729815D01*
X108916706Y-99677011D01*
X108905500Y-99625500D01*
X108905500Y-93679822D01*
X120949499Y-93679822D01*
X120958231Y-93723717D01*
X120958232Y-93723721D01*
X120958233Y-93723722D01*
X120991496Y-93773504D01*
X121041278Y-93806767D01*
X121041281Y-93806767D01*
X121041282Y-93806768D01*
X121085177Y-93815500D01*
X121085180Y-93815500D01*
X122914822Y-93815500D01*
X122958717Y-93806768D01*
X122958717Y-93806767D01*
X122958722Y-93806767D01*
X123008504Y-93773504D01*
X123041767Y-93723722D01*
X123050500Y-93679820D01*
X123050500Y-91850180D01*
X123050500Y-91850177D01*
X123041768Y-91806282D01*
X123041767Y-91806281D01*
X123041767Y-91806278D01*
X123008504Y-91756496D01*
X123008503Y-91756495D01*
X122958724Y-91723234D01*
X122958717Y-91723231D01*
X122914822Y-91714500D01*
X122914820Y-91714500D01*
X121085180Y-91714500D01*
X121085178Y-91714500D01*
X121041282Y-91723231D01*
X121041275Y-91723234D01*
X120991496Y-91756495D01*
X120991495Y-91756496D01*
X120958234Y-91806275D01*
X120958231Y-91806282D01*
X120949500Y-91850177D01*
X120949500Y-91850180D01*
X120949500Y-93679820D01*
X120949500Y-93679822D01*
X120949499Y-93679822D01*
X108905500Y-93679822D01*
X108905500Y-90126530D01*
X120949500Y-90126530D01*
X120949500Y-90333469D01*
X120989868Y-90536412D01*
X120989870Y-90536420D01*
X121069058Y-90727596D01*
X121184024Y-90899657D01*
X121330342Y-91045975D01*
X121330345Y-91045977D01*
X121502402Y-91160941D01*
X121693580Y-91240130D01*
X121896530Y-91280499D01*
X121896534Y-91280500D01*
X121896535Y-91280500D01*
X122103466Y-91280500D01*
X122103467Y-91280499D01*
X122306420Y-91240130D01*
X122497598Y-91160941D01*
X122669655Y-91045977D01*
X122815977Y-90899655D01*
X122930941Y-90727598D01*
X123010130Y-90536420D01*
X123050500Y-90333465D01*
X123050500Y-90126535D01*
X123010130Y-89923580D01*
X122930941Y-89732402D01*
X122815977Y-89560345D01*
X122815975Y-89560342D01*
X122669657Y-89414024D01*
X122583626Y-89356541D01*
X122497598Y-89299059D01*
X122306420Y-89219870D01*
X122306412Y-89219868D01*
X122103469Y-89179500D01*
X122103465Y-89179500D01*
X121896535Y-89179500D01*
X121896530Y-89179500D01*
X121693587Y-89219868D01*
X121693579Y-89219870D01*
X121502403Y-89299058D01*
X121330342Y-89414024D01*
X121184024Y-89560342D01*
X121069058Y-89732403D01*
X120989870Y-89923579D01*
X120989868Y-89923587D01*
X120949500Y-90126530D01*
X108905500Y-90126530D01*
X108905500Y-83374500D01*
X108925185Y-83307461D01*
X108977989Y-83261706D01*
X109029500Y-83250500D01*
X122455830Y-83250500D01*
X122495572Y-83250500D01*
X122504418Y-83250816D01*
G37*
%TD.AperFunction*%
%TD*%
M02*
