%TF.GenerationSoftware,KiCad,Pcbnew,9.0.0*%
%TF.CreationDate,2026-02-04T19:41:43+01:00*%
%TF.ProjectId,Keychain-flashlight,4b657963-6861-4696-9e2d-666c6173686c,rev?*%
%TF.SameCoordinates,Original*%
%TF.FileFunction,Legend,Bot*%
%TF.FilePolarity,Positive*%
%FSLAX46Y46*%
G04 Gerber Fmt 4.6, Leading zero omitted, Abs format (unit mm)*
G04 Created by KiCad (PCBNEW 9.0.0) date 2026-02-04 19:41:43*
%MOMM*%
%LPD*%
G01*
G04 APERTURE LIST*
%ADD10C,0.200000*%
G04 APERTURE END LIST*
D10*
X123880326Y-96757275D02*
X123880326Y-95757275D01*
X123308898Y-96757275D02*
X123737469Y-96185846D01*
X123308898Y-95757275D02*
X123880326Y-96328703D01*
X122499374Y-96709656D02*
X122594612Y-96757275D01*
X122594612Y-96757275D02*
X122785088Y-96757275D01*
X122785088Y-96757275D02*
X122880326Y-96709656D01*
X122880326Y-96709656D02*
X122927945Y-96614417D01*
X122927945Y-96614417D02*
X122927945Y-96233465D01*
X122927945Y-96233465D02*
X122880326Y-96138227D01*
X122880326Y-96138227D02*
X122785088Y-96090608D01*
X122785088Y-96090608D02*
X122594612Y-96090608D01*
X122594612Y-96090608D02*
X122499374Y-96138227D01*
X122499374Y-96138227D02*
X122451755Y-96233465D01*
X122451755Y-96233465D02*
X122451755Y-96328703D01*
X122451755Y-96328703D02*
X122927945Y-96423941D01*
X122118421Y-96090608D02*
X121880326Y-96757275D01*
X121642231Y-96090608D02*
X121880326Y-96757275D01*
X121880326Y-96757275D02*
X121975564Y-96995370D01*
X121975564Y-96995370D02*
X122023183Y-97042989D01*
X122023183Y-97042989D02*
X122118421Y-97090608D01*
X120832707Y-96709656D02*
X120927945Y-96757275D01*
X120927945Y-96757275D02*
X121118421Y-96757275D01*
X121118421Y-96757275D02*
X121213659Y-96709656D01*
X121213659Y-96709656D02*
X121261278Y-96662036D01*
X121261278Y-96662036D02*
X121308897Y-96566798D01*
X121308897Y-96566798D02*
X121308897Y-96281084D01*
X121308897Y-96281084D02*
X121261278Y-96185846D01*
X121261278Y-96185846D02*
X121213659Y-96138227D01*
X121213659Y-96138227D02*
X121118421Y-96090608D01*
X121118421Y-96090608D02*
X120927945Y-96090608D01*
X120927945Y-96090608D02*
X120832707Y-96138227D01*
X120404135Y-96757275D02*
X120404135Y-95757275D01*
X119975564Y-96757275D02*
X119975564Y-96233465D01*
X119975564Y-96233465D02*
X120023183Y-96138227D01*
X120023183Y-96138227D02*
X120118421Y-96090608D01*
X120118421Y-96090608D02*
X120261278Y-96090608D01*
X120261278Y-96090608D02*
X120356516Y-96138227D01*
X120356516Y-96138227D02*
X120404135Y-96185846D01*
X119070802Y-96757275D02*
X119070802Y-96233465D01*
X119070802Y-96233465D02*
X119118421Y-96138227D01*
X119118421Y-96138227D02*
X119213659Y-96090608D01*
X119213659Y-96090608D02*
X119404135Y-96090608D01*
X119404135Y-96090608D02*
X119499373Y-96138227D01*
X119070802Y-96709656D02*
X119166040Y-96757275D01*
X119166040Y-96757275D02*
X119404135Y-96757275D01*
X119404135Y-96757275D02*
X119499373Y-96709656D01*
X119499373Y-96709656D02*
X119546992Y-96614417D01*
X119546992Y-96614417D02*
X119546992Y-96519179D01*
X119546992Y-96519179D02*
X119499373Y-96423941D01*
X119499373Y-96423941D02*
X119404135Y-96376322D01*
X119404135Y-96376322D02*
X119166040Y-96376322D01*
X119166040Y-96376322D02*
X119070802Y-96328703D01*
X118594611Y-96757275D02*
X118594611Y-96090608D01*
X118594611Y-95757275D02*
X118642230Y-95804894D01*
X118642230Y-95804894D02*
X118594611Y-95852513D01*
X118594611Y-95852513D02*
X118546992Y-95804894D01*
X118546992Y-95804894D02*
X118594611Y-95757275D01*
X118594611Y-95757275D02*
X118594611Y-95852513D01*
X118118421Y-96090608D02*
X118118421Y-96757275D01*
X118118421Y-96185846D02*
X118070802Y-96138227D01*
X118070802Y-96138227D02*
X117975564Y-96090608D01*
X117975564Y-96090608D02*
X117832707Y-96090608D01*
X117832707Y-96090608D02*
X117737469Y-96138227D01*
X117737469Y-96138227D02*
X117689850Y-96233465D01*
X117689850Y-96233465D02*
X117689850Y-96757275D01*
X116118421Y-96233465D02*
X116451754Y-96233465D01*
X116451754Y-96757275D02*
X116451754Y-95757275D01*
X116451754Y-95757275D02*
X115975564Y-95757275D01*
X115451754Y-96757275D02*
X115546992Y-96709656D01*
X115546992Y-96709656D02*
X115594611Y-96614417D01*
X115594611Y-96614417D02*
X115594611Y-95757275D01*
X114642230Y-96757275D02*
X114642230Y-96233465D01*
X114642230Y-96233465D02*
X114689849Y-96138227D01*
X114689849Y-96138227D02*
X114785087Y-96090608D01*
X114785087Y-96090608D02*
X114975563Y-96090608D01*
X114975563Y-96090608D02*
X115070801Y-96138227D01*
X114642230Y-96709656D02*
X114737468Y-96757275D01*
X114737468Y-96757275D02*
X114975563Y-96757275D01*
X114975563Y-96757275D02*
X115070801Y-96709656D01*
X115070801Y-96709656D02*
X115118420Y-96614417D01*
X115118420Y-96614417D02*
X115118420Y-96519179D01*
X115118420Y-96519179D02*
X115070801Y-96423941D01*
X115070801Y-96423941D02*
X114975563Y-96376322D01*
X114975563Y-96376322D02*
X114737468Y-96376322D01*
X114737468Y-96376322D02*
X114642230Y-96328703D01*
X114213658Y-96709656D02*
X114118420Y-96757275D01*
X114118420Y-96757275D02*
X113927944Y-96757275D01*
X113927944Y-96757275D02*
X113832706Y-96709656D01*
X113832706Y-96709656D02*
X113785087Y-96614417D01*
X113785087Y-96614417D02*
X113785087Y-96566798D01*
X113785087Y-96566798D02*
X113832706Y-96471560D01*
X113832706Y-96471560D02*
X113927944Y-96423941D01*
X113927944Y-96423941D02*
X114070801Y-96423941D01*
X114070801Y-96423941D02*
X114166039Y-96376322D01*
X114166039Y-96376322D02*
X114213658Y-96281084D01*
X114213658Y-96281084D02*
X114213658Y-96233465D01*
X114213658Y-96233465D02*
X114166039Y-96138227D01*
X114166039Y-96138227D02*
X114070801Y-96090608D01*
X114070801Y-96090608D02*
X113927944Y-96090608D01*
X113927944Y-96090608D02*
X113832706Y-96138227D01*
X113356515Y-96757275D02*
X113356515Y-95757275D01*
X112927944Y-96757275D02*
X112927944Y-96233465D01*
X112927944Y-96233465D02*
X112975563Y-96138227D01*
X112975563Y-96138227D02*
X113070801Y-96090608D01*
X113070801Y-96090608D02*
X113213658Y-96090608D01*
X113213658Y-96090608D02*
X113308896Y-96138227D01*
X113308896Y-96138227D02*
X113356515Y-96185846D01*
X112308896Y-96757275D02*
X112404134Y-96709656D01*
X112404134Y-96709656D02*
X112451753Y-96614417D01*
X112451753Y-96614417D02*
X112451753Y-95757275D01*
X111927943Y-96757275D02*
X111927943Y-96090608D01*
X111927943Y-95757275D02*
X111975562Y-95804894D01*
X111975562Y-95804894D02*
X111927943Y-95852513D01*
X111927943Y-95852513D02*
X111880324Y-95804894D01*
X111880324Y-95804894D02*
X111927943Y-95757275D01*
X111927943Y-95757275D02*
X111927943Y-95852513D01*
X111023182Y-96090608D02*
X111023182Y-96900132D01*
X111023182Y-96900132D02*
X111070801Y-96995370D01*
X111070801Y-96995370D02*
X111118420Y-97042989D01*
X111118420Y-97042989D02*
X111213658Y-97090608D01*
X111213658Y-97090608D02*
X111356515Y-97090608D01*
X111356515Y-97090608D02*
X111451753Y-97042989D01*
X111023182Y-96709656D02*
X111118420Y-96757275D01*
X111118420Y-96757275D02*
X111308896Y-96757275D01*
X111308896Y-96757275D02*
X111404134Y-96709656D01*
X111404134Y-96709656D02*
X111451753Y-96662036D01*
X111451753Y-96662036D02*
X111499372Y-96566798D01*
X111499372Y-96566798D02*
X111499372Y-96281084D01*
X111499372Y-96281084D02*
X111451753Y-96185846D01*
X111451753Y-96185846D02*
X111404134Y-96138227D01*
X111404134Y-96138227D02*
X111308896Y-96090608D01*
X111308896Y-96090608D02*
X111118420Y-96090608D01*
X111118420Y-96090608D02*
X111023182Y-96138227D01*
X110546991Y-96757275D02*
X110546991Y-95757275D01*
X110118420Y-96757275D02*
X110118420Y-96233465D01*
X110118420Y-96233465D02*
X110166039Y-96138227D01*
X110166039Y-96138227D02*
X110261277Y-96090608D01*
X110261277Y-96090608D02*
X110404134Y-96090608D01*
X110404134Y-96090608D02*
X110499372Y-96138227D01*
X110499372Y-96138227D02*
X110546991Y-96185846D01*
X109785086Y-96090608D02*
X109404134Y-96090608D01*
X109642229Y-95757275D02*
X109642229Y-96614417D01*
X109642229Y-96614417D02*
X109594610Y-96709656D01*
X109594610Y-96709656D02*
X109499372Y-96757275D01*
X109499372Y-96757275D02*
X109404134Y-96757275D01*
X123308898Y-98367219D02*
X123642231Y-97891028D01*
X123880326Y-98367219D02*
X123880326Y-97367219D01*
X123880326Y-97367219D02*
X123499374Y-97367219D01*
X123499374Y-97367219D02*
X123404136Y-97414838D01*
X123404136Y-97414838D02*
X123356517Y-97462457D01*
X123356517Y-97462457D02*
X123308898Y-97557695D01*
X123308898Y-97557695D02*
X123308898Y-97700552D01*
X123308898Y-97700552D02*
X123356517Y-97795790D01*
X123356517Y-97795790D02*
X123404136Y-97843409D01*
X123404136Y-97843409D02*
X123499374Y-97891028D01*
X123499374Y-97891028D02*
X123880326Y-97891028D01*
X122499374Y-98319600D02*
X122594612Y-98367219D01*
X122594612Y-98367219D02*
X122785088Y-98367219D01*
X122785088Y-98367219D02*
X122880326Y-98319600D01*
X122880326Y-98319600D02*
X122927945Y-98224361D01*
X122927945Y-98224361D02*
X122927945Y-97843409D01*
X122927945Y-97843409D02*
X122880326Y-97748171D01*
X122880326Y-97748171D02*
X122785088Y-97700552D01*
X122785088Y-97700552D02*
X122594612Y-97700552D01*
X122594612Y-97700552D02*
X122499374Y-97748171D01*
X122499374Y-97748171D02*
X122451755Y-97843409D01*
X122451755Y-97843409D02*
X122451755Y-97938647D01*
X122451755Y-97938647D02*
X122927945Y-98033885D01*
X122118421Y-97700552D02*
X121880326Y-98367219D01*
X121880326Y-98367219D02*
X121642231Y-97700552D01*
X121261278Y-98271980D02*
X121213659Y-98319600D01*
X121213659Y-98319600D02*
X121261278Y-98367219D01*
X121261278Y-98367219D02*
X121308897Y-98319600D01*
X121308897Y-98319600D02*
X121261278Y-98271980D01*
X121261278Y-98271980D02*
X121261278Y-98367219D01*
X119499374Y-98367219D02*
X120070802Y-98367219D01*
X119785088Y-98367219D02*
X119785088Y-97367219D01*
X119785088Y-97367219D02*
X119880326Y-97510076D01*
X119880326Y-97510076D02*
X119975564Y-97605314D01*
X119975564Y-97605314D02*
X120070802Y-97652933D01*
M02*
