%TF.GenerationSoftware,KiCad,Pcbnew,10.0.0*%
%TF.CreationDate,2026-03-29T11:41:36+02:00*%
%TF.ProjectId,LED-Flashlight,4c45442d-466c-4617-9368-6c696768742e,rev?*%
%TF.SameCoordinates,Original*%
%TF.FileFunction,Legend,Bot*%
%TF.FilePolarity,Positive*%
%FSLAX46Y46*%
G04 Gerber Fmt 4.6, Leading zero omitted, Abs format (unit mm)*
G04 Created by KiCad (PCBNEW 10.0.0) date 2026-03-29 11:41:36*
%MOMM*%
%LPD*%
G01*
G04 APERTURE LIST*
%ADD10C,0.300000*%
G04 APERTURE END LIST*
D10*
X158089285Y-105470996D02*
X158803571Y-105470996D01*
X158803571Y-105470996D02*
X158803571Y-103970996D01*
X157589285Y-104685282D02*
X157089285Y-104685282D01*
X156874999Y-105470996D02*
X157589285Y-105470996D01*
X157589285Y-105470996D02*
X157589285Y-103970996D01*
X157589285Y-103970996D02*
X156874999Y-103970996D01*
X156232142Y-105470996D02*
X156232142Y-103970996D01*
X156232142Y-103970996D02*
X155874999Y-103970996D01*
X155874999Y-103970996D02*
X155660713Y-104042425D01*
X155660713Y-104042425D02*
X155517856Y-104185282D01*
X155517856Y-104185282D02*
X155446427Y-104328139D01*
X155446427Y-104328139D02*
X155374999Y-104613853D01*
X155374999Y-104613853D02*
X155374999Y-104828139D01*
X155374999Y-104828139D02*
X155446427Y-105113853D01*
X155446427Y-105113853D02*
X155517856Y-105256710D01*
X155517856Y-105256710D02*
X155660713Y-105399568D01*
X155660713Y-105399568D02*
X155874999Y-105470996D01*
X155874999Y-105470996D02*
X156232142Y-105470996D01*
X161803571Y-107100198D02*
X162303571Y-107100198D01*
X162303571Y-107885912D02*
X162303571Y-106385912D01*
X162303571Y-106385912D02*
X161589285Y-106385912D01*
X160803571Y-107885912D02*
X160946428Y-107814484D01*
X160946428Y-107814484D02*
X161017857Y-107671626D01*
X161017857Y-107671626D02*
X161017857Y-106385912D01*
X159589286Y-107885912D02*
X159589286Y-107100198D01*
X159589286Y-107100198D02*
X159660714Y-106957341D01*
X159660714Y-106957341D02*
X159803571Y-106885912D01*
X159803571Y-106885912D02*
X160089286Y-106885912D01*
X160089286Y-106885912D02*
X160232143Y-106957341D01*
X159589286Y-107814484D02*
X159732143Y-107885912D01*
X159732143Y-107885912D02*
X160089286Y-107885912D01*
X160089286Y-107885912D02*
X160232143Y-107814484D01*
X160232143Y-107814484D02*
X160303571Y-107671626D01*
X160303571Y-107671626D02*
X160303571Y-107528769D01*
X160303571Y-107528769D02*
X160232143Y-107385912D01*
X160232143Y-107385912D02*
X160089286Y-107314484D01*
X160089286Y-107314484D02*
X159732143Y-107314484D01*
X159732143Y-107314484D02*
X159589286Y-107243055D01*
X158946428Y-107814484D02*
X158803571Y-107885912D01*
X158803571Y-107885912D02*
X158517857Y-107885912D01*
X158517857Y-107885912D02*
X158375000Y-107814484D01*
X158375000Y-107814484D02*
X158303571Y-107671626D01*
X158303571Y-107671626D02*
X158303571Y-107600198D01*
X158303571Y-107600198D02*
X158375000Y-107457341D01*
X158375000Y-107457341D02*
X158517857Y-107385912D01*
X158517857Y-107385912D02*
X158732143Y-107385912D01*
X158732143Y-107385912D02*
X158875000Y-107314484D01*
X158875000Y-107314484D02*
X158946428Y-107171626D01*
X158946428Y-107171626D02*
X158946428Y-107100198D01*
X158946428Y-107100198D02*
X158875000Y-106957341D01*
X158875000Y-106957341D02*
X158732143Y-106885912D01*
X158732143Y-106885912D02*
X158517857Y-106885912D01*
X158517857Y-106885912D02*
X158375000Y-106957341D01*
X157660714Y-107885912D02*
X157660714Y-106385912D01*
X157017857Y-107885912D02*
X157017857Y-107100198D01*
X157017857Y-107100198D02*
X157089285Y-106957341D01*
X157089285Y-106957341D02*
X157232142Y-106885912D01*
X157232142Y-106885912D02*
X157446428Y-106885912D01*
X157446428Y-106885912D02*
X157589285Y-106957341D01*
X157589285Y-106957341D02*
X157660714Y-107028769D01*
X156089285Y-107885912D02*
X156232142Y-107814484D01*
X156232142Y-107814484D02*
X156303571Y-107671626D01*
X156303571Y-107671626D02*
X156303571Y-106385912D01*
X155517857Y-107885912D02*
X155517857Y-106885912D01*
X155517857Y-106385912D02*
X155589285Y-106457341D01*
X155589285Y-106457341D02*
X155517857Y-106528769D01*
X155517857Y-106528769D02*
X155446428Y-106457341D01*
X155446428Y-106457341D02*
X155517857Y-106385912D01*
X155517857Y-106385912D02*
X155517857Y-106528769D01*
X154160714Y-106885912D02*
X154160714Y-108100198D01*
X154160714Y-108100198D02*
X154232142Y-108243055D01*
X154232142Y-108243055D02*
X154303571Y-108314484D01*
X154303571Y-108314484D02*
X154446428Y-108385912D01*
X154446428Y-108385912D02*
X154660714Y-108385912D01*
X154660714Y-108385912D02*
X154803571Y-108314484D01*
X154160714Y-107814484D02*
X154303571Y-107885912D01*
X154303571Y-107885912D02*
X154589285Y-107885912D01*
X154589285Y-107885912D02*
X154732142Y-107814484D01*
X154732142Y-107814484D02*
X154803571Y-107743055D01*
X154803571Y-107743055D02*
X154874999Y-107600198D01*
X154874999Y-107600198D02*
X154874999Y-107171626D01*
X154874999Y-107171626D02*
X154803571Y-107028769D01*
X154803571Y-107028769D02*
X154732142Y-106957341D01*
X154732142Y-106957341D02*
X154589285Y-106885912D01*
X154589285Y-106885912D02*
X154303571Y-106885912D01*
X154303571Y-106885912D02*
X154160714Y-106957341D01*
X153446428Y-107885912D02*
X153446428Y-106385912D01*
X152803571Y-107885912D02*
X152803571Y-107100198D01*
X152803571Y-107100198D02*
X152874999Y-106957341D01*
X152874999Y-106957341D02*
X153017856Y-106885912D01*
X153017856Y-106885912D02*
X153232142Y-106885912D01*
X153232142Y-106885912D02*
X153374999Y-106957341D01*
X153374999Y-106957341D02*
X153446428Y-107028769D01*
X152303570Y-106885912D02*
X151732142Y-106885912D01*
X152089285Y-106385912D02*
X152089285Y-107671626D01*
X152089285Y-107671626D02*
X152017856Y-107814484D01*
X152017856Y-107814484D02*
X151874999Y-107885912D01*
X151874999Y-107885912D02*
X151732142Y-107885912D01*
X159410713Y-108800828D02*
X158910713Y-110300828D01*
X158910713Y-110300828D02*
X158410713Y-108800828D01*
X155982142Y-110300828D02*
X156839285Y-110300828D01*
X156410714Y-110300828D02*
X156410714Y-108800828D01*
X156410714Y-108800828D02*
X156553571Y-109015114D01*
X156553571Y-109015114D02*
X156696428Y-109157971D01*
X156696428Y-109157971D02*
X156839285Y-109229400D01*
X155339286Y-110157971D02*
X155267857Y-110229400D01*
X155267857Y-110229400D02*
X155339286Y-110300828D01*
X155339286Y-110300828D02*
X155410714Y-110229400D01*
X155410714Y-110229400D02*
X155339286Y-110157971D01*
X155339286Y-110157971D02*
X155339286Y-110300828D01*
X154339285Y-108800828D02*
X154196428Y-108800828D01*
X154196428Y-108800828D02*
X154053571Y-108872257D01*
X154053571Y-108872257D02*
X153982143Y-108943685D01*
X153982143Y-108943685D02*
X153910714Y-109086542D01*
X153910714Y-109086542D02*
X153839285Y-109372257D01*
X153839285Y-109372257D02*
X153839285Y-109729400D01*
X153839285Y-109729400D02*
X153910714Y-110015114D01*
X153910714Y-110015114D02*
X153982143Y-110157971D01*
X153982143Y-110157971D02*
X154053571Y-110229400D01*
X154053571Y-110229400D02*
X154196428Y-110300828D01*
X154196428Y-110300828D02*
X154339285Y-110300828D01*
X154339285Y-110300828D02*
X154482143Y-110229400D01*
X154482143Y-110229400D02*
X154553571Y-110157971D01*
X154553571Y-110157971D02*
X154625000Y-110015114D01*
X154625000Y-110015114D02*
X154696428Y-109729400D01*
X154696428Y-109729400D02*
X154696428Y-109372257D01*
X154696428Y-109372257D02*
X154625000Y-109086542D01*
X154625000Y-109086542D02*
X154553571Y-108943685D01*
X154553571Y-108943685D02*
X154482143Y-108872257D01*
X154482143Y-108872257D02*
X154339285Y-108800828D01*
M02*
